<?xml version="1.0" standalone="no"?>
<!DOCTYPE svg PUBLIC "-//W3C//DTD SVG 20010904//EN"
 "http://www.w3.org/TR/2001/REC-SVG-20010904/DTD/svg10.dtd">
<svg version="1.0" xmlns="http://www.w3.org/2000/svg"
 width="100.000000pt" height="100.000000pt" viewBox="0 0 100.000000 100.000000"
 preserveAspectRatio="xMidYMid meet">

<g transform="translate(0.000000,100.000000) scale(0.100000,-0.100000)"
fill="#000000" stroke="none">
<path d="M34 966 l-34 -34 0 -432 0 -432 34 -34 34 -34 432 0 432 0 34 34 34
34 0 432 0 432 -34 34 -34 34 -432 0 -432 0 -34 -34z m564 -269 c76 -41 84
-177 15 -234 l-27 -22 19 -35 c16 -30 25 -35 60 -38 38 -3 40 -4 43 -40 l3
-38 -68 0 -68 0 -38 70 c-31 57 -43 70 -63 70 -20 0 -24 -5 -24 -30 0 -20 5
-30 15 -30 11 0 15 -11 15 -40 l0 -40 -90 0 -90 0 0 40 c0 38 2 40 30 40 l30
0 0 135 0 135 -30 0 c-28 0 -30 2 -30 41 l0 41 133 -4 c103 -3 139 -8 165 -21z"/>
<path d="M450 576 l0 -66 38 0 c49 0 82 23 82 59 0 43 -21 62 -73 68 l-47 6 0
-67z"/>
</g>
</svg>
